<svg width="400" height="108" viewBox="0 0 400 108" fill="none" xmlns="http://www.w3.org/2000/svg">
<g clip-path="url(#clip0_23_477)">
<path fill-rule="evenodd" clip-rule="evenodd" d="M268.505 58.7136C274.648 58.7136 278.466 59.2098 279.961 59.8714C281.455 60.5329 283.115 63.3446 283.115 64.9985C283.115 65.66 282.617 65.9908 282.119 65.9908C279.297 65.66 274.482 64.9985 269.169 64.9985C262.86 64.9985 259.539 65.8254 258.045 66.9832C256.55 68.1409 255.886 70.4564 255.886 73.268C255.886 75.4181 256.218 76.5758 256.716 77.2374C258.377 79.2221 278.3 81.7029 281.621 83.6876C283.115 84.6799 284.277 87.4916 284.277 92.1225C284.277 98.5727 282.617 102.542 280.127 104.692C277.968 106.511 273.652 107.835 264.52 107.835C258.377 107.835 253.396 107.173 251.902 106.346C250.241 105.354 248.913 102.708 248.913 100.888C248.913 100.227 249.577 99.8959 250.075 99.8959C253.064 100.392 259.373 101.384 264.354 101.384C270.829 101.384 273.486 100.723 274.648 99.7305C275.976 98.7381 276.806 96.9188 276.806 93.7764C276.806 91.1302 276.308 89.807 275.478 89.3109C273.486 87.4916 254.06 84.8453 251.071 82.8606C249.411 81.7029 248.581 78.3951 248.581 74.4257C248.581 68.3063 250.241 64.5023 252.732 62.5176C255.554 60.2021 260.535 58.7136 268.505 58.7136ZM201.594 59.3752C203.255 59.3752 203.919 59.8714 203.919 62.0214V99.0689C203.919 100.557 204.417 101.054 205.911 101.054H210.062C217.035 101.054 222.348 100.723 225.835 100.557C226.499 100.557 226.831 100.888 226.831 101.55C226.831 103.038 224.839 106.015 223.51 106.677C222.348 107.173 218.696 107.338 210.892 107.338H207.405C203.089 107.338 201.926 107.338 198.274 107.173C197.776 107.173 196.614 106.842 196.614 105.188V60.2021C196.614 59.706 196.78 59.2098 197.278 59.2098H201.594V59.3752ZM132.194 59.3752C134.186 59.3752 134.684 59.8714 134.684 62.1868V76.245C134.684 79.5528 135.016 79.8836 137.673 79.8836H156.6C159.091 79.8836 159.589 79.3874 159.589 76.5758V62.0214C159.589 59.8714 160.087 59.3752 162.079 59.3752H165.898C166.728 59.3752 166.728 59.706 166.728 60.3675V106.181C166.728 106.842 166.396 107.173 165.898 107.173H162.079C160.087 107.173 159.755 106.677 159.755 104.692V89.6417C159.755 86.4992 159.257 86.1684 156.6 86.1684H137.839C135.016 86.1684 134.684 86.4992 134.684 89.6417V104.527C134.684 106.842 134.186 107.173 132.194 107.173H128.541C127.877 107.173 127.711 106.677 127.711 106.181V60.3675C127.711 59.706 128.043 59.3752 128.541 59.3752H132.194ZM184.327 59.3752C184.991 59.3752 185.157 59.8714 185.157 60.3675V105.188C185.157 106.677 184.493 107.173 183.165 107.173H179.014C178.35 107.173 178.184 106.677 178.184 106.181V61.3599C178.184 60.0368 178.682 59.3752 180.011 59.3752H184.327ZM239.283 59.3752C239.947 59.3752 240.113 59.8714 240.113 60.3675V105.188C240.113 106.677 239.449 107.173 238.121 107.173H233.97C233.306 107.173 233.14 106.677 233.14 106.181V61.3599C233.14 60.0368 233.638 59.3752 234.967 59.3752H239.283ZM115.923 61.3599C118.081 62.8484 120.24 66.1562 120.24 73.268C120.24 79.3874 118.081 84.6799 115.425 86.4992C113.266 88.1531 109.448 88.8147 103.305 88.8147H93.5088C92.5126 88.8147 92.0145 89.1455 92.0145 90.634V105.85C92.0145 107.008 91.6824 107.338 90.5202 107.338H85.7053C85.0412 107.338 84.8752 107.008 84.8752 106.346V60.6983C84.8752 59.8714 85.3733 59.706 85.8714 59.706C90.5202 59.5406 95.9992 59.3752 101.644 59.3752C110.776 59.2098 113.764 59.8714 115.923 61.3599ZM101.644 65.1639H99.8179C97.1614 65.1639 94.837 65.1639 93.3427 65.3292C92.5126 65.3292 92.0145 65.66 92.0145 66.6524V81.2067C92.0145 82.3645 92.3466 82.6953 93.5088 82.6953H102.474C106.625 82.6953 108.285 82.5299 109.614 81.8683C111.44 80.876 113.1 78.3951 113.1 73.5988C113.1 69.464 112.104 67.3139 110.61 66.3216C109.282 65.66 107.289 65.1639 101.644 65.1639ZM180.509 0.826953C183.663 0.826953 184.493 1.15773 184.493 4.79632V30.5972C184.493 36.0551 184.991 38.536 186.486 40.1899C187.98 41.6784 191.301 43.0015 196.614 43.0015C201.926 43.0015 205.247 42.0092 206.907 40.5207C208.402 39.0322 209.398 36.5513 209.398 30.7626V4.63093C209.398 1.15773 210.394 0.826953 213.383 0.826953H215.707C216.371 0.826953 216.703 1.15773 216.703 1.8193V30.928C216.703 39.0322 215.541 42.6707 212.718 45.317C210.394 47.4671 205.081 49.6172 196.614 49.6172C188.146 49.6172 182.833 47.6325 180.343 44.9862C178.018 42.34 177.188 39.0322 177.188 31.755V1.8193C177.188 1.15773 177.52 0.826953 178.018 0.826953H180.509ZM58.3104 0.165391C64.4535 0.165391 68.2722 0.661562 69.7664 1.32312C71.2607 1.98469 72.921 4.79632 72.921 6.45023C72.921 7.11179 72.4229 7.44257 71.9248 7.44257C68.9363 7.27718 64.1214 6.61562 58.8084 6.61562C52.4993 6.61562 49.1787 7.44257 47.6844 8.60031C46.1902 9.75804 45.526 12.0735 45.526 14.8851C45.526 17.0352 45.8581 18.193 46.3562 18.8545C48.0165 20.8392 67.9401 23.3201 71.2607 25.3047C72.755 26.2971 73.9172 29.1087 73.9172 33.7397C73.9172 40.1899 72.2569 44.1593 69.7664 46.3093C67.6081 48.1286 63.2913 49.4518 54.1596 49.4518C48.1825 49.4518 43.2016 48.7902 41.5413 47.9632C39.881 46.9709 38.5528 44.3247 38.5528 42.5054C38.5528 41.8438 39.2169 41.513 39.715 41.513C42.7035 42.0092 49.0127 43.0015 53.9936 43.0015C60.4688 43.0015 63.1252 42.34 64.2875 41.3476C65.6157 40.3553 66.4458 38.536 66.4458 35.3936C66.4458 32.7473 65.9478 31.4242 65.1176 30.928C64.1214 30.1011 58.6424 28.9433 52.9974 27.7856L51.8352 27.4548C46.8543 26.4625 42.2054 25.3047 40.7112 24.4778C39.0509 23.1547 38.2207 19.8469 38.2207 15.8775C38.2207 9.75804 39.881 5.95406 42.3715 3.96937C45.194 1.65391 50.1749 0.165391 58.3104 0.165391ZM105.131 0.330781C111.274 0.330781 115.259 0.661562 116.919 1.65391C118.745 2.64625 119.908 5.12711 119.908 6.61562C119.908 7.11179 119.576 7.60796 118.911 7.60796C116.089 7.27718 111.938 6.61562 105.961 6.61562C98.8217 6.61562 95.3351 7.60796 93.3427 9.59265C90.8523 11.7427 88.8599 16.7044 88.8599 24.974C88.8599 33.2435 90.3542 38.3706 93.0107 40.3553C95.1691 42.0092 99.1538 43.0015 105.795 43.0015C111.44 43.0015 116.753 42.1746 119.243 42.0092C119.742 42.0092 120.24 42.1746 120.074 42.8361C119.908 44.49 118.579 46.9709 116.919 47.9632C115.425 48.7902 111.108 49.6172 103.471 49.6172C95.1691 49.6172 90.0221 47.9632 87.3656 45.4824C84.2111 42.8361 81.3886 37.0475 81.3886 25.8009C81.3886 14.5544 84.5431 7.93874 88.3618 4.96172C91.3504 2.15008 95.9992 0.330781 105.131 0.330781ZM244.762 0.826953C254.392 0.826953 257.713 1.6539 259.705 2.97703C261.697 4.46554 263.358 7.44257 263.358 12.2389C263.358 16.5391 262.195 19.1853 261.199 21.0046C260.701 21.9969 260.203 22.4931 260.203 23.1547C260.203 23.6508 260.535 24.3124 261.365 25.1394C263.026 26.9587 265.018 30.1011 265.018 35.0628C265.018 41.513 262.528 45.1516 259.871 46.8055C257.713 48.294 253.894 49.121 244.928 49.121C238.619 49.121 233.306 48.9556 229.155 48.7902C228.657 48.7902 227.495 48.4594 227.495 46.8055V2.48086C227.495 1.32312 228.325 1.15773 228.989 1.15773C233.306 0.992343 238.785 0.826953 244.762 0.826953ZM396.016 1.48851C397.676 2.31547 399.17 5.12711 399.17 6.61562C399.17 7.27718 398.672 7.60796 398.174 7.60796C395.186 7.11179 389.873 6.45023 384.56 6.45023C377.42 6.45023 373.27 7.60796 371.111 9.42726C368.787 11.5773 366.462 16.539 366.462 24.6432C366.462 32.7473 367.957 37.8744 370.613 40.0245C372.606 41.6784 376.258 42.8361 381.405 42.8361C385.556 42.8361 388.711 42.34 390.703 41.8438C392.031 41.513 392.529 41.0168 392.529 39.3629V29.9357C392.529 28.6126 392.031 28.2818 390.703 28.2818H381.737C381.073 28.2818 380.741 28.1164 380.741 27.2894C380.741 26.1317 382.235 23.3201 383.398 22.6585C384.062 22.1623 384.892 22.1623 386.386 22.1623H397.344C399.004 22.1623 400.001 22.4931 400.001 24.6432V43.8285C400.001 45.4824 399.336 46.4747 397.344 46.9709C394.023 47.7979 388.544 48.7902 381.903 48.7902C372.606 48.7902 368.123 46.9709 365.3 44.49C362.312 41.8438 359.655 36.2205 359.655 25.1394C359.655 13.0658 363.308 7.11179 366.462 4.46554C369.451 1.98469 374.764 0 384.062 0C390.371 0 394.356 0.496171 396.016 1.48851ZM304.035 1.15773C305.363 1.48851 307.024 4.63093 307.024 6.28484C307.024 6.78101 306.526 7.27718 306.027 7.27718C302.375 7.11179 296.73 6.9464 291.251 6.9464H289.923C286.934 6.9464 284.277 6.9464 282.451 7.11179C280.957 7.11179 280.625 7.60796 280.625 9.09648V20.0123C280.625 21.17 281.123 21.3354 282.119 21.3354H303.869C304.533 21.3354 304.865 21.6662 304.865 22.3277C304.865 23.3201 303.537 26.1317 302.375 26.9587C301.545 27.4548 300.714 27.4548 299.054 27.4548H281.953C280.957 27.4548 280.459 27.7856 280.459 29.1087V40.5207C280.459 42.0092 280.957 42.5054 282.451 42.5054H290.421C297.892 42.5054 303.039 42.34 306.858 42.0092C307.356 42.0092 307.854 42.1746 307.854 42.8361C307.854 44.3247 305.861 47.4671 304.367 47.9632C303.039 48.4594 299.552 48.6248 291.749 48.6248H288.926C283.115 48.6248 278.3 48.6248 274.648 48.4594C274.15 48.4594 272.987 48.1286 272.987 46.4747V2.48086C272.987 1.32312 273.984 0.992343 274.482 0.992343C278.965 0.826953 283.447 0.661562 289.59 0.661562H291.915C298.224 0.661562 302.873 0.661562 304.035 1.15773ZM132.194 0.826953C134.186 0.826953 134.684 1.32312 134.684 3.63859V17.6968C134.684 21.17 135.182 21.3354 137.839 21.3354H156.434C158.925 21.3354 159.423 20.8392 159.423 18.0276V3.4732C159.423 1.32312 159.921 0.826953 161.913 0.826953H165.732C166.562 0.826953 166.562 1.15773 166.562 1.8193V47.6325C166.562 48.294 166.23 48.6248 165.732 48.6248H161.913C159.921 48.6248 159.589 48.1286 159.589 46.1439V31.0934C159.589 27.951 159.091 27.6202 156.434 27.6202H137.839C135.182 27.6202 134.684 27.951 134.684 30.928V46.1439C134.684 48.4594 134.186 48.7902 132.194 48.7902H128.541C127.877 48.7902 127.711 48.294 127.711 47.7979V1.8193C127.711 1.15773 128.043 0.826953 128.541 0.826953H132.194ZM332.758 0.661562C342.222 0.661562 345.543 1.32312 347.867 2.97703C350.192 4.63093 351.852 7.77335 351.852 13.0658C351.852 18.6891 350.358 22.4931 348.033 25.4701C347.037 26.6279 346.705 27.2894 346.705 28.2818C346.705 29.2741 347.037 30.5972 348.033 33.2435L353.512 47.6325C353.844 48.294 353.512 49.121 352.682 49.121H351.022C347.535 49.121 346.041 48.1286 344.712 44.49L341.06 34.5666C339.732 31.0934 338.403 30.2665 334.917 30.2665H325.121C323.959 30.2665 323.627 30.5972 323.627 31.9204V47.6325C323.627 48.7902 323.295 49.121 322.132 49.121H317.151C316.487 49.121 316.321 48.7902 316.321 48.1286V1.98469C316.321 1.32312 316.819 0.992343 317.318 0.992343C321.468 0.826953 327.943 0.661562 332.758 0.661562ZM248.415 27.124H236.461C235.133 27.124 234.634 27.6202 234.634 29.1087V40.8515C234.634 42.34 235.133 42.6707 236.627 42.6707C238.453 42.6707 241.442 42.8361 244.928 42.8361C249.743 42.8361 253.23 42.5054 254.724 41.513C256.218 40.3553 257.381 38.3706 257.381 34.732C257.381 31.0934 255.886 28.6126 254.226 27.7856C253.23 27.2894 252.068 27.2894 248.415 27.124ZM332.924 6.61562C329.77 6.61562 326.449 6.61562 324.623 6.78101C323.793 6.78101 323.295 7.11179 323.295 8.26953V22.1623C323.295 23.4855 323.627 23.8162 324.789 23.8162H335.581C338.403 23.8162 339.566 23.6508 340.562 23.3201C342.056 22.8239 344.38 19.3507 344.38 14.389C344.38 11.2466 343.55 9.26187 342.222 8.10413C341.226 7.11179 338.237 6.61562 332.924 6.61562ZM244.098 6.78101C241.276 6.78101 238.453 6.78101 236.461 7.11179C234.967 7.11179 234.634 7.60796 234.634 9.09648V19.6815C234.634 21.0046 235.133 21.17 236.295 21.17H247.585C250.407 21.17 252.068 21.0046 253.064 20.5084C254.392 19.6815 256.052 17.8622 256.052 13.8928C256.052 10.4196 255.056 8.93109 253.728 8.10413C252.234 7.27718 249.743 6.78101 244.098 6.78101Z" fill="#020C17"/>
<path fill-rule="evenodd" clip-rule="evenodd" d="M0.0341322 1.15773C-0.131898 0.330781 0.366193 0 1.03031 0H7.83755C10.6601 0 12.1543 0.826953 13.3165 4.30015L48.681 106.842C48.847 107.504 48.681 108 48.0169 108H41.0436C38.5531 108 36.7268 107.173 35.5646 103.7L0.0341322 1.15773Z" fill="#1E80ED"/>
</g>
<defs>
<clipPath id="clip0_23_477">
<rect width="400" height="108" fill="white"/>
</clipPath>
</defs>
</svg>
