<?xml version="1.0" encoding="utf-8"?>
<!-- Generator: Adobe Illustrator 19.2.1, SVG Export Plug-In . SVG Version: 6.00 Build 0)  -->
<svg version="1.1" id="layer" xmlns="http://www.w3.org/2000/svg" xmlns:xlink="http://www.w3.org/1999/xlink" x="0px" y="0px"
	 viewBox="0 0 652 652" style="enable-background:new 0 0 652 652;" xml:space="preserve">
<style type="text/css">
	.st0{fill:#3F5663;}
	.st1{fill:#E0012A;}
	.st2{fill:#222587;}
	.st3{fill:#8DC221;}
	.st4{fill:#F39C00;}
	.st5{fill:#0078B1;}
</style>
<polygon class="st0" points="21,316 33,316 51.6,383.6 51.8,383.6 71.8,316 84.9,316 104.8,383.6 105.1,383.6 123.7,316 135.6,316 
	111,400.5 99,400.5 78.4,331.5 78.2,331.5 57.8,400.5 45.7,400.5 "/>
<path class="st0" d="M143.9,343.9h10.7v56.6h-10.7V343.9z M149.3,318.3c3.4,0,6.2,2.8,6.2,6.2c0,3.4-2.8,6.2-6.2,6.2
	c-3.4,0-6.2-2.8-6.2-6.2C143.1,321.1,145.9,318.3,149.3,318.3"/>
<rect x="172.6" y="310.3" class="st0" width="10.7" height="90.2"/>
<path class="st0" d="M228.8,358.1c-2.5-3.1-6.2-5.6-11.6-5.6c-5,0-9.4,2.3-9.4,6.3c0,6.8,9.7,7.8,14.4,8.8
	c9.3,2.3,16.5,5.9,16.5,16.5c0,12.8-11.7,17.8-22.9,17.8c-9.3,0-16.2-2.4-21.8-10l8.1-6.7c3.5,3.5,7.5,6.7,13.7,6.7
	c5.5,0,11.5-2.3,11.5-7.2c0-6.4-9-7.6-13.6-8.7c-9.2-2.3-17.3-5.3-17.3-16.1c0-11.8,10.9-17.4,21.5-17.4c7.5,0,15.3,2.6,19.3,9.3
	L228.8,358.1z"/>
<path class="st0" d="M277.3,391.9c11.5,0,18.6-8.2,18.6-19.7c0-11.5-7.2-19.7-18.6-19.7c-11.5,0-18.6,8.2-18.6,19.7
	C258.7,383.7,265.9,391.9,277.3,391.9 M277.3,342.5c16.8,0,30.1,13.2,30.1,29.7c0,16.5-13.3,29.7-30.1,29.7
	c-16.8,0-30.1-13.3-30.1-29.7C247.3,355.7,260.5,342.5,277.3,342.5"/>
<path class="st0" d="M316.7,343.9h10.7v8.7h0.2c2.7-6,9.9-10.1,18.6-10.1c11,0,20.5,6.6,20.5,21.6v36.4h-10.7v-33.4
	c0-10.6-6.1-14.6-12.9-14.6c-8.9,0-15.8,5.7-15.8,18.9v29.1h-10.7V343.9z"/>
<polygon class="st0" points="448.8,400.2 432.9,400.2 432.9,364.9 397.2,364.9 397.2,400.2 381.2,400.2 381.2,316.6 397.2,316.6 
	397.2,350.1 432.9,350.1 432.9,316.6 448.8,316.6 "/>
<path class="st0" d="M497.7,401.7c-22.8,0-40.5-19.2-40.5-43.6c0-24.5,17.7-43.6,40.5-43.6c18.9,0,32.9,10.7,38.1,27.8h-17.2
	c-3.7-7.6-11.2-13.2-20.8-13.2c-13.7,0-24.6,13.2-24.6,29c0,15.9,10.8,29.2,24.6,29.2c9.5,0,17.1-5.9,20.8-13.5h17.1
	C530.4,390.7,516.3,401.7,497.7,401.7"/>
<path class="st0" d="M621,400.2h-14.7v-9c-5.5,6.6-14.5,10.5-24.8,10.5c-22.8,0-40.6-19-40.6-43.5c0-24.5,17.8-43.6,40.6-43.6
	c18.6,0,32.8,10.5,38,27.8h-17.1c-3.3-7.4-11.2-13.4-20.8-13.4c-13.9,0-24.7,13.3-24.7,29.2c0,15.8,11.2,29,25.4,29
	c11.9,0,21.2-8.2,24.2-18.7h-22.7v-14.8H621V400.2z"/>
<path class="st1" d="M304.2,276.1l0.1-1.9c0-3.2-1.3-8.8-9.9-11.3l-2.4-0.7l1.1-2.2c1.1-2.1,1.7-4.5,1.7-6.9c0-7.3-5-13.2-11.1-13.2
	c-6.1,0-11.1,5.9-11.1,13.2c0,2.5,0.6,4.9,1.7,7l1.2,2.2l-2.4,0.7c-6.2,1.9-8.6,5.4-9.5,8.2c2.9,3,3.3,6.5,3.3,8.3l-1,28.9h36
	l-1-24.6C300.9,282.1,301.4,278.9,304.2,276.1"/>
<path class="st2" d="M362.1,278.9l-2.4-0.7l1.1-2.2c0.9-1.7,1.3-3.6,1.3-5.5c0-5.8-3.9-10.5-8.8-10.5s-8.8,4.7-8.8,10.5
	c0,2,0.5,3.9,1.4,5.6l1.2,2.2l-2.4,0.7c-2,0.6-3.5,1.4-4.6,2.3c0.2,1,0.3,1.9,0.3,2.5l-1.6,39.9h-0.8l0.2,5.7h30.2l1.4-41.6
	C370,284.8,368.6,280.8,362.1,278.9"/>
<path class="st3" d="M338.4,283.2c-0.1-0.8-0.2-1.6-0.5-2.5c-0.9-2.4-3-5.1-7.9-6.5l-2.4-0.7l1.1-2.2c0.9-1.8,1.4-3.8,1.4-5.9
	c0-6.2-4.2-11.3-9.5-11.3c-5.2,0-9.5,5.1-9.5,11.3c0,2.1,0.5,4.2,1.5,6l1.1,2.2l-2.4,0.7c-2.4,0.7-4.1,1.7-5.3,2.8
	c-1,0.9-1.7,1.8-2.2,2.7c-0.9,1.6-1,3.1-1.1,4.1l0.4,8.6l0.7,18l0.5,11.2H336h0.9l0.6-15.1l0.9-22.8
	C338.5,283.6,338.5,283.4,338.4,283.2"/>
<path class="st4" d="M220.8,278.9l-2.4-0.7l1.1-2.2c0.9-1.7,1.3-3.6,1.3-5.5c0-5.8-3.9-10.5-8.8-10.5c-4.8,0-8.8,4.7-8.8,10.5
	c0,2,0.5,3.9,1.4,5.6l1.1,2.2l-2.4,0.7c-7.1,2.2-7.9,6.9-7.9,8.9l1.4,33.8h29.3l-1.4-40.9C223.8,280.1,222.5,279.4,220.8,278.9"/>
<path class="st5" d="M261.4,271.8c-1.3-1.1-3.1-2.1-5.5-2.8l-2.4-0.7l1.1-2.2c1-1.9,1.5-4.1,1.5-6.4c0-6.7-4.6-12.2-10.2-12.2
	c-5.6,0-10.2,5.5-10.2,12.2c0,2.3,0.5,4.5,1.6,6.5l1.2,2.2l-2.4,0.7c-8.3,2.5-9.2,8-9.2,10.3l0,0.3l0.1,3l0.9,24.8l0.6,16.2l0.2,5.7
	h34.6l0.7-19l0.5-14.1l0.6-16.9c0-1.5-0.3-3.7-1.8-5.7C262.7,273.1,262.1,272.5,261.4,271.8"/>
</svg>
