<svg xmlns="http://www.w3.org/2000/svg" viewBox="0 0 600 162" width="600" height="162">
	<style>
		tspan { white-space:pre }
		.shp0 { fill: #3f5663 } 
		.shp1 { fill: #e0012a } 
		.shp2 { fill: #222587 } 
		.shp3 { fill: #8dc221 } 
		.shp4 { fill: #f39c00 } 
		.shp5 { fill: #0078b1 } 
	</style>
	<path id="Layer" class="shp0" d="M0 76L12 76L30.6 143.6L30.8 143.6L50.8 76L63.9 76L83.8 143.6L84.1 143.6L102.7 76L114.6 76L90 160.5L78 160.5L57.4 91.5L57.2 91.5L36.8 160.5L24.7 160.5L0 76Z" />
	<path id="Layer" class="shp0" d="M122.9 103.9L133.6 103.9L133.6 160.5L122.9 160.5L122.9 103.9ZM128.3 78.3C131.7 78.3 134.5 81.1 134.5 84.5C134.5 87.9 131.7 90.7 128.3 90.7C124.9 90.7 122.1 87.9 122.1 84.5C122.1 81.1 124.9 78.3 128.3 78.3Z" />
	<path id="Layer" class="shp0" d="M151.6 70.3L162.3 70.3L162.3 160.5L151.6 160.5L151.6 70.3Z" />
	<path id="Layer" class="shp0" d="M207.8 118.1C205.3 115 201.6 112.5 196.2 112.5C191.2 112.5 186.8 114.8 186.8 118.8C186.8 125.6 196.5 126.6 201.2 127.6C210.5 129.9 217.7 133.5 217.7 144.1C217.7 156.9 206 161.9 194.8 161.9C185.5 161.9 178.6 159.5 173 151.9L181.1 145.2C184.6 148.7 188.6 151.9 194.8 151.9C200.3 151.9 206.3 149.6 206.3 144.7C206.3 138.3 197.3 137.1 192.7 136C183.5 133.7 175.4 130.7 175.4 119.9C175.4 108.1 186.3 102.5 196.9 102.5C204.4 102.5 212.2 105.1 216.2 111.8L207.8 118.1Z" />
	<path id="Layer" fill-rule="evenodd" class="shp0" d="M256.3 102.5C273.1 102.5 286.4 115.7 286.4 132.2C286.4 148.7 273.1 161.9 256.3 161.9C239.5 161.9 226.2 148.6 226.2 132.2C226.3 115.7 239.5 102.5 256.3 102.5ZM256.3 151.9C267.8 151.9 274.9 143.7 274.9 132.2C274.9 120.7 267.7 112.5 256.3 112.5C244.8 112.5 237.7 120.7 237.7 132.2C237.7 143.7 244.9 151.9 256.3 151.9Z" />
	<path id="Layer" class="shp0" d="M295.7 103.9L306.4 103.9L306.4 112.6L306.6 112.6C309.3 106.6 316.5 102.5 325.2 102.5C336.2 102.5 345.7 109.1 345.7 124.1L345.7 160.5L335 160.5L335 127.1C335 116.5 328.9 112.5 322.1 112.5C313.2 112.5 306.3 118.2 306.3 131.4L306.3 160.5L295.6 160.5L295.6 103.9L295.7 103.9Z" />
	<path id="Layer" class="shp0" d="M427.8 160.2L411.9 160.2L411.9 124.9L376.2 124.9L376.2 160.2L360.2 160.2L360.2 76.6L376.2 76.6L376.2 110.1L411.9 110.1L411.9 76.6L427.8 76.6L427.8 160.2Z" />
	<path id="Layer" class="shp0" d="M476.7 161.7C453.9 161.7 436.2 142.5 436.2 118.1C436.2 93.6 453.9 74.5 476.7 74.5C495.6 74.5 509.6 85.2 514.8 102.3L497.6 102.3C493.9 94.7 486.4 89.1 476.8 89.1C463.1 89.1 452.2 102.3 452.2 118.1C452.2 134 463 147.3 476.8 147.3C486.3 147.3 493.9 141.4 497.6 133.8L514.7 133.8C509.4 150.7 495.3 161.7 476.7 161.7Z" />
	<path id="Layer" class="shp0" d="M600 160.2L585.3 160.2L585.3 151.2C579.8 157.8 570.8 161.7 560.5 161.7C537.7 161.7 519.9 142.7 519.9 118.2C519.9 93.7 537.7 74.6 560.5 74.6C579.1 74.6 593.3 85.1 598.5 102.4L581.4 102.4C578.1 95 570.2 89 560.6 89C546.7 89 535.9 102.3 535.9 118.2C535.9 134 547.1 147.2 561.3 147.2C573.2 147.2 582.5 139 585.5 128.5L562.8 128.5L562.8 113.7L600 113.7L600 160.2Z" />
	<path id="Layer" class="shp1" d="M283.2 36.1L283.3 34.2C283.3 31 282 25.4 273.4 22.9L271 22.2L272.1 20C273.2 17.9 273.8 15.5 273.8 13.1C273.8 5.8 268.8 -0.1 262.7 -0.1C256.6 -0.1 251.6 5.8 251.6 13.1C251.6 15.6 252.2 18 253.3 20.1L254.5 22.3L252.1 23C245.9 24.9 243.5 28.4 242.6 31.2C245.5 34.2 245.9 37.7 245.9 39.5L244.9 68.4L280.9 68.4L279.9 43.8C279.9 42.1 280.4 38.9 283.2 36.1Z" />
	<path id="Layer" class="shp2" d="M341.1 38.9L338.7 38.2L339.8 36C340.7 34.3 341.1 32.4 341.1 30.5C341.1 24.7 337.2 20 332.3 20C327.4 20 323.5 24.7 323.5 30.5C323.5 32.5 324 34.4 324.9 36.1L326.1 38.3L323.7 39C321.7 39.6 320.2 40.4 319.1 41.3C319.3 42.3 319.4 43.2 319.4 43.8L317.8 83.7L317 83.7L317.2 89.4L347.4 89.4L348.8 47.8C349 44.8 347.6 40.8 341.1 38.9Z" />
	<path id="Layer" class="shp3" d="M317.4 43.2C317.3 42.4 317.2 41.6 316.9 40.7C316 38.3 313.9 35.6 309 34.2L306.6 33.5L307.7 31.3C308.6 29.5 309.1 27.5 309.1 25.4C309.1 19.2 304.9 14.1 299.6 14.1C294.4 14.1 290.1 19.2 290.1 25.4C290.1 27.5 290.6 29.6 291.6 31.4L292.7 33.6L290.3 34.3C287.9 35 286.2 36 285 37.1C284 38 283.3 38.9 282.8 39.8C281.9 41.4 281.8 42.9 281.7 43.9L282.1 52.5L282.8 70.5L283.3 81.7L315 81.7L315.9 81.7L316.5 66.6L317.4 43.8C317.5 43.6 317.5 43.4 317.4 43.2Z" />
	<path id="Layer" class="shp4" d="M199.8 38.9L197.4 38.2L198.5 36C199.4 34.3 199.8 32.4 199.8 30.5C199.8 24.7 195.9 20 191 20C186.2 20 182.2 24.7 182.2 30.5C182.2 32.5 182.7 34.4 183.6 36.1L184.7 38.3L182.3 39C175.2 41.2 174.4 45.9 174.4 47.9L175.8 81.7L205.1 81.7L203.7 40.8C202.8 40.1 201.5 39.4 199.8 38.9Z" />
	<path id="Layer" class="shp5" d="M240.4 31.8C239.1 30.7 237.3 29.7 234.9 29L232.5 28.3L233.6 26.1C234.6 24.2 235.1 22 235.1 19.7C235.1 13 230.5 7.5 224.9 7.5C219.3 7.5 214.7 13 214.7 19.7C214.7 22 215.2 24.2 216.3 26.2L217.5 28.4L215.1 29.1C206.8 31.6 205.9 37.1 205.9 39.4L205.9 39.7L206 42.7L206.9 67.5L207.5 83.7L207.7 89.4L242.3 89.4L243 70.4L243.5 56.3L244.1 39.4C244.1 37.9 243.8 35.7 242.3 33.7C241.7 33.1 241.1 32.5 240.4 31.8Z" />
</svg>