<svg xmlns="http://www.w3.org/2000/svg" viewBox="0 0 400 150" width="400" height="150">
	<style>
		tspan { white-space:pre }
		.shp0 { fill: #ffffff } 
	</style>
	<path id="Layer" fill-rule="evenodd" class="shp0" d="M136.96 91.04C136.96 103.48 128.76 109.32 117.32 111.32C114.4 111.84 110.52 112.08 106.16 112.08L79.52 112.08C81.44 109.16 82.96 105.88 82.96 102.16L82.96 82.84C76.04 84.2 69.6 85.44 63.44 86.92C66.84 96.2 69.48 103.56 69.96 104.84C69.96 104.92 71 108 74.04 112.12L53.88 112.12C54.88 108.88 53 103.88 53 103.88L48.36 90.6C43.96 91.92 34.64 94.84 29.28 97.28C25.16 99.12 21.28 101.96 19.84 106.24C19.36 107.76 19 110.24 19.28 112.12L5 112.12C7.68 108.68 8.96 104.84 8.96 104.84L28.48 50.44C29.76 46.96 30 44.4 29.72 42L47.16 42C47.16 42 54.12 61.16 60.36 78.36C67.32 76.68 74.72 75.28 82.96 73.64L82.96 51.88C82.96 47.56 81.28 44.68 79.52 42L107.56 42C123.24 42 132.8 46.88 132.8 57.84C132.8 64.12 129.36 69.2 120.08 72.96C130.6 75.84 137 81.52 136.96 91.04ZM45.4 82.04L36.6 56.92C34.04 64.2 28.76 79.6 24.92 90.8C26.16 89.56 28.32 88.24 30 87.44C34.12 85.48 40.96 83.32 45.4 82.04ZM98.52 50.76L98.52 70.8C102.2 70.16 105.92 69.4 108.16 68.72C113.48 67.12 116.68 64.12 116.68 59.28C116.68 54.2 112.68 50.6 104.08 50.6C102.28 50.6 101.28 50.6 98.52 50.76ZM120.8 91.44C120.8 83.52 115.08 80.32 107.32 78.52C104.8 78.8 100.96 79.48 98.56 80.04L98.56 103.4L105 103.4C114 103.4 120.76 100.68 120.8 91.44ZM147.64 102.2L147.64 51.96C147.64 51.88 147.64 47.24 144.2 42.04L166.72 42.04C163.28 47.24 163.28 51.88 163.28 51.96L163.28 102.2C163.28 102.28 163.28 106.96 166.72 112.12L144.2 112.12C147.64 106.96 147.64 102.28 147.64 102.2ZM391.12 71.52L377.64 105.08C376.16 108.8 375.84 112.12 375.84 112.12L362.8 112.12L346.04 71.52C345.08 69.24 343.4 65.6 340.72 62.76L360.2 62.76C358.92 64.84 359.4 68.16 360.76 71.52L370.88 97.56L380.64 71.52C381.96 68.16 382.48 64.84 381.2 62.76L396.28 62.76C393.96 65.2 392.04 69.2 391.12 71.52ZM327.28 90.24L307.04 90.24C308.28 99.52 314.04 102.8 323.4 102.8C328.8 102.8 333.64 101.04 337.6 99.04L341.8 108.32C337.72 110.8 330.84 113.32 322.32 113.32C301.36 113.32 292.6 102.28 292.6 86.2C292.6 73.56 299.44 60.6 318.04 60.6C340.84 60.6 343.68 78.56 342.72 88.88C340.76 89.84 334.72 90.28 327.28 90.24ZM321.56 81.76C325.4 81.76 328.36 81.68 328.36 81.68C328.08 74.96 324.76 69.76 318.04 69.76C311.56 69.76 308 73.8 307.08 81.76L321.56 81.76ZM208.28 103.32L208.28 81.12C208.28 75.84 206.04 72.44 199.92 72.44C195.92 72.44 192.28 74.36 189.72 77L189.72 103.32C189.72 103.36 189.72 107.52 192.76 112.08L172.76 112.08C175.8 107.52 175.8 103.4 175.8 103.32L175.8 71.52C175.8 71.48 175.8 67.36 172.76 62.76L189.72 62.76L189.72 68.6C193.88 64.84 199.52 61.76 206.36 61.76C217.08 61.76 222.16 67.56 222.16 77L222.16 103.36C222.16 103.4 222.16 107.56 225.2 112.12L205.24 112.12C208.28 107.52 208.28 103.4 208.28 103.32ZM257.28 112.12L231.88 112.12C233.8 108.92 234.4 105.48 234.4 102.2L234.4 51.96C234.4 49 233.76 44.88 231.88 42.04L258.76 42.04C274.84 42.04 283.76 47.64 283.76 58.6C283.76 64.96 280.76 69.84 271.8 73.24C281.8 76.12 288.16 81.28 288.16 91.24C288.16 103.64 279.84 109.4 268.6 111.36C265.68 111.88 261.64 112.12 257.28 112.12ZM249.96 50.52L249.96 70.24C251.68 70.28 254.6 70.24 256.2 70.24C264.48 70.24 268.08 66.48 268.08 60.2C268.08 53.88 264.08 50.52 255.48 50.52L249.96 50.52ZM249.96 79.04L249.96 103.64L256.72 103.64C268.04 103.64 272.2 98.56 272.2 91.6C272.2 83.84 266.8 79.04 256.96 79.04L249.96 79.04Z" />
</svg>