<svg xmlns="http://www.w3.org/2000/svg" viewBox="0 0 600 150" width="600" height="150">
	<defs>
		<linearGradient id="grd1" gradientUnits="userSpaceOnUse"  x1="433.823" y1="50.347" x2="399.122" y2="110.469">
			<stop offset="0" stop-color="#ffffff"  />
			<stop offset="0.92" stop-color="#ffffff"  />
		</linearGradient>
	</defs>
	<style>
		tspan { white-space:pre }
		.shp0 { fill: url(#grd1) } 
	</style>
	<path id="path13" fill-rule="evenodd" class="shp0" d="M23.6 72.27C33.02 82.34 36.27 99.24 30.91 110.24C30.82 110.42 30.71 110.6 30.58 110.75C30.45 110.89 30.29 111.03 30.13 111.14C29.96 111.24 29.78 111.32 29.58 111.38C29.39 111.43 29.19 111.45 28.99 111.45L4.13 111.45C3.77 111.45 3.41 111.36 3.09 111.18C2.77 111 2.51 110.75 2.32 110.44C2.12 110.12 2.02 109.77 2 109.41C1.99 109.05 2.07 108.68 2.23 108.36L20.08 72.66C20.23 72.33 20.46 72.05 20.74 71.84C21.04 71.63 21.38 71.51 21.73 71.47C22.09 71.44 22.44 71.48 22.77 71.62C23.1 71.77 23.38 71.99 23.6 72.27ZM36.7 39.84C36.87 39.5 37.12 39.22 37.44 39.01C37.76 38.81 38.14 38.7 38.52 38.7C38.89 38.7 39.27 38.81 39.59 39.01C39.91 39.22 40.17 39.5 40.33 39.84L74.6 108.36C74.73 108.68 74.8 109.03 74.78 109.38C74.75 109.73 74.64 110.07 74.47 110.37C74.28 110.67 74.04 110.93 73.74 111.1C73.45 111.29 73.1 111.4 72.76 111.43L47.9 111.43C47.7 111.43 47.51 111.4 47.32 111.34C47.12 111.29 46.95 111.21 46.78 111.1C46.62 111 46.46 110.87 46.33 110.73C46.2 110.59 46.09 110.42 46 110.24L33.95 86.34C32.15 82.69 30.83 78.83 30.03 74.85C29.23 70.86 28.94 66.78 29.17 62.72C29.41 58.67 30.18 54.66 31.45 50.8C32.72 46.93 34.48 43.25 36.7 39.84ZM556.53 65.78L556.53 111.45L543.77 111.45L543.77 51.57L563.91 51.57L578.41 79L583.24 90.21L583.24 51.57L596 51.57L596 111.45L579.96 111.45L561.91 77.9L556.53 65.78ZM448.67 51.57L462.61 51.57L462.61 111.45L448.67 111.45L448.67 51.57ZM432.51 93.77C432.51 104.89 425.85 112.36 409.09 112.36C397.2 112.36 390.82 109.72 385.99 107.35L385.99 92.95C387.75 93.94 389.58 94.82 391.45 95.58C393.34 96.35 395.26 97 397.22 97.53C399.18 98.06 401.16 98.46 403.17 98.75C405.17 99.03 407.2 99.19 409.23 99.23C416.02 99.23 418.03 97.32 418.03 94.13C418.03 90.94 416.02 89.39 406.45 87.39C390.41 84.28 386.31 77.23 386.31 68.43C386.31 57.4 394.33 50.66 409.82 50.66C411.52 50.62 413.22 50.69 414.91 50.84C416.6 51 418.28 51.25 419.94 51.6C421.62 51.94 423.26 52.38 424.87 52.91C426.49 53.44 428.07 54.06 429.62 54.76L429.62 68.45C423.16 65.54 416.31 63.44 409.38 63.44C403.68 63.44 400.58 64.9 400.58 68.37C400.58 71.14 402.67 73.05 411.33 74.97C427.02 78.34 432.57 83.26 432.57 93.74L432.51 93.77ZM374.44 93.77C374.44 104.89 367.79 112.36 351.02 112.36C339.14 112.36 332.76 109.72 327.92 107.35L327.92 92.95C329.68 93.94 331.52 94.82 333.39 95.58C335.27 96.35 337.19 97 339.15 97.53C341.11 98.06 343.09 98.46 345.1 98.75C347.1 99.03 349.13 99.19 351.16 99.23C357.96 99.23 359.96 97.32 359.96 94.13C359.96 90.94 357.96 89.39 348.39 87.39C332.34 84.28 328.24 77.23 328.24 68.43C328.24 57.4 336.27 50.66 351.76 50.66C353.45 50.62 355.15 50.69 356.84 50.84C358.53 51 360.21 51.25 361.88 51.6C363.55 51.94 365.19 52.38 366.8 52.91C368.42 53.44 370 54.06 371.56 54.76L371.56 68.45C365.09 65.54 358.26 63.44 351.33 63.44C345.63 63.44 342.53 64.9 342.53 68.37C342.53 71.14 344.63 73.05 353.29 74.97C369.01 78.34 374.51 83.26 374.51 93.74L374.44 93.77ZM253.15 98.51L248.64 111.45L219.98 111.45L219.98 51.57L234.01 51.57L234.01 98.51L253.15 98.51ZM178.84 111.45L178.84 64.51L163.34 64.51L163.34 51.57L209.46 51.57L209.46 64.51L192.87 64.51L192.87 111.45L178.84 111.45ZM163.91 111.45L147.96 111.45L145 101.37C143.19 101.9 141.34 102.3 139.47 102.57C137.61 102.84 135.72 102.97 133.84 102.97C131.94 102.97 130.06 102.84 128.19 102.57C126.32 102.3 124.47 101.9 122.67 101.37L119.7 111.45L103.69 111.45L124.59 51.57L142.99 51.57L163.91 111.45ZM133.79 90.58C134.44 90.58 135.09 90.55 135.74 90.51C136.39 90.47 137.04 90.39 137.67 90.3C138.32 90.21 138.96 90.09 139.6 89.96C140.24 89.82 140.86 89.65 141.49 89.48L133.79 63.34L126.09 89.48C126.71 89.65 127.34 89.82 127.97 89.96C128.61 90.09 129.25 90.21 129.9 90.3C130.55 90.39 131.18 90.47 131.83 90.51C132.48 90.55 133.13 90.58 133.79 90.58ZM318.92 111.45L302.97 111.45L300.01 101.37C298.2 101.89 296.35 102.3 294.48 102.57C292.62 102.84 290.73 102.97 288.85 102.97C286.95 102.97 285.07 102.84 283.2 102.57C281.33 102.3 279.49 101.89 277.68 101.37L274.71 111.45L258.76 111.45L279.66 51.57L298.05 51.57L318.92 111.45ZM288.86 90.58C289.51 90.58 290.16 90.55 290.81 90.51C291.45 90.47 292.1 90.39 292.74 90.3C293.39 90.21 294.03 90.09 294.67 89.96C295.3 89.82 295.93 89.66 296.56 89.48L288.86 63.34L281.16 89.48C281.77 89.66 282.41 89.82 283.04 89.96C283.68 90.09 284.31 90.21 284.96 90.3C285.61 90.39 286.25 90.47 286.9 90.51C287.55 90.55 288.2 90.58 288.86 90.58ZM533.73 111.45L517.77 111.45L514.81 101.37C512.99 101.89 511.15 102.3 509.28 102.57C507.42 102.84 505.52 102.97 503.64 102.97C501.75 102.97 499.87 102.84 498 102.57C496.13 102.3 494.28 101.89 492.48 101.37L489.52 111.45L473.57 111.45L494.47 51.57L512.86 51.57L533.73 111.45ZM503.67 90.58C504.31 90.58 504.96 90.55 505.61 90.51C506.26 90.47 506.91 90.39 507.55 90.3C508.2 90.21 508.84 90.09 509.47 89.96C510.11 89.82 510.74 89.65 511.37 89.48L503.67 63.34L495.97 89.48C496.58 89.65 497.22 89.82 497.85 89.96C498.48 90.09 499.12 90.21 499.77 90.3C500.42 90.39 501.06 90.47 501.71 90.51C502.36 90.55 503.01 90.58 503.67 90.58Z" />
</svg>