<svg xmlns="http://www.w3.org/2000/svg" viewBox="0 0 460 150" width="460" height="150">
	<style>
		tspan { white-space:pre }
		.shp0 { fill: #ffffff } 
	</style>
	<path id="Layer" fill-rule="evenodd" class="shp0" d="M63.03 32L79.58 32L79.58 61.52C83.52 56.51 88.23 52.19 96.88 52.19C109.48 52.19 116.69 60.46 116.69 74.12L116.69 111.92L100.14 111.92L100.14 79.13C100.14 71.24 96.58 67.21 90.05 67.21C83.52 67.21 79.58 71.16 79.58 79.13L79.58 111.92L63.03 111.92L63.03 32ZM123.82 82.77C123.82 65.85 135.74 52.19 152.97 52.19C172.4 52.19 181.43 67.29 181.43 83.84C181.43 85.28 181.43 86.72 181.05 88.16L140.37 88.16C142.19 95.75 147.2 99.7 154.79 99.7C160.18 99.7 164.5 97.88 169.21 93.55L178.54 101.82C173.15 108.65 165.26 112.6 154.41 112.6C136.8 112.98 123.82 100.76 123.82 82.77ZM152.66 65.47C145.83 65.47 141.13 70.48 140.06 78.07L165.26 78.07L165.26 77.69C164.2 70.48 159.87 65.47 152.66 65.47ZM189.02 53.25L205.56 53.25L205.56 65.17C208.82 56.89 214.59 51.88 224.31 52.19L224.31 69.49L223.62 69.49C212.47 69.49 206.02 76.32 206.02 90.36L206.02 111.99L189.47 111.99C189.32 111.92 189.02 53.25 189.02 53.25ZM281.53 52.87L292.69 88.84L302.4 53.17L318.95 53.17L300.58 112.22L285.48 112.22L274.32 76.25L262.79 112.22L248.06 112.22L230.07 53.17L247 53.17L256.33 88.84L267.11 52.87L281.53 52.87ZM318.57 82.77C318.57 65.85 330.48 52.19 347.71 52.19C367.14 52.19 376.17 67.29 376.17 83.84C376.17 85.28 376.17 86.72 375.79 88.16L335.11 88.16C336.93 95.75 341.94 99.7 349.53 99.7C354.92 99.7 359.25 97.88 363.95 93.55L373.29 101.82C367.9 108.65 360.01 112.6 349.53 112.6C331.55 112.98 318.57 100.76 318.57 82.77ZM360.01 77.69C358.94 70.48 354.62 65.47 347.79 65.47C340.96 65.47 336.25 70.48 335.19 78.07L360.01 78.07L360.01 77.69ZM381.94 32L398.48 32L398.48 111.92L381.94 111.92L381.94 32ZM410.4 32L426.94 32L426.94 111.92L410.4 111.92L410.4 32ZM33.51 112.98C29.18 112.98 25.24 112.3 21.29 110.47C17.72 109.03 14.46 106.53 11.58 104.02C8.69 101.14 6.87 97.88 5.13 94.31C3.68 90.74 3 86.72 3 82.39L3 82.01C3 77.69 3.68 73.74 5.13 70.1C6.57 66.53 8.69 63.27 11.58 60.38C14.46 58.26 17.72 56.06 21.29 54.24C24.86 52.79 29.18 51.73 33.89 51.73C39.28 51.73 43.98 52.42 47.55 54.24C51.12 56.06 54.38 58.56 57.26 61.45L47.17 72.22C45.35 70.1 43.22 68.66 41.4 67.52C38.9 66.84 36.7 66.08 33.51 66.08C31.38 66.08 29.56 66.46 27.74 67.14C25.92 67.82 24.48 69.26 23.42 70.71C21.97 72.15 21.29 73.97 20.53 75.71C19.85 77.54 19.47 79.66 19.47 81.86L19.47 82.24C19.47 84.37 19.85 86.57 20.53 88.69C21.21 90.82 22.35 92.26 23.42 93.7C24.86 95.14 26.3 96.21 28.12 97.27C29.94 97.95 32.07 98.33 34.27 98.33C37.15 98.33 39.28 97.65 41.48 96.51C43.6 95.45 45.8 94.01 47.63 91.8L57.34 101.52C54.46 104.78 51.19 107.29 47.63 109.11C43.91 111.92 39.28 112.98 33.51 112.98ZM448.5 51.43C443.11 51.43 438.78 47.1 438.78 41.71C438.78 36.33 443.11 32 448.5 32C453.89 32 458.21 36.33 458.21 41.71C458.21 47.1 453.96 51.43 448.5 51.43ZM448.5 33.82C444.17 33.82 440.91 37.39 440.91 41.41C440.91 45.74 444.48 49 448.5 49C450.34 49 452.14 48.22 453.53 46.95L453.81 46.95L453.71 46.77C455.15 45.36 456.09 43.46 456.09 41.41C456.47 37.39 452.82 33.82 448.5 33.82ZM447.06 42.4L447.06 46.34L444.55 46.34L444.55 36.25L448.5 36.25C449.94 36.25 450.62 36.63 451.38 36.93C452.06 37.31 452.44 38 452.44 39.06C452.44 39.74 452.44 40.12 452.06 40.88C451.69 41.26 451.38 41.56 450.62 41.94C451 41.94 451.31 42.32 451.69 42.63C452.06 43 452.37 43.31 452.37 44.07L453.71 46.77C453.66 46.82 453.58 46.9 453.53 46.95L451.08 46.95L450.02 44.45C449.64 44.07 449.64 43.76 449.33 43.38C448.95 43.38 448.65 43 448.27 43L447.06 42.4ZM448.19 40.96C448.88 40.96 449.26 40.96 449.26 40.58C449.64 40.2 449.64 40.2 449.64 39.51C449.64 39.13 449.64 38.83 449.26 38.45C448.88 38.07 448.57 38.07 448.19 38.07L447.13 38.07L447.13 40.58L448.19 40.96Z" />
</svg>