<svg xmlns="http://www.w3.org/2000/svg" viewBox="0 0 310 150" width="310" height="150">
	<style>
		tspan { white-space:pre }
		.shp0 { fill: #ffffff } 
	</style>
	<path id="Layer" fill-rule="evenodd" class="shp0" d="M61.61 104.6C61.61 109.53 64.01 111.93 68.94 111.93L71.07 111.93C76 111.93 78.39 109.53 78.39 104.6L78.39 95.14L89.72 95.14L89.72 104.2C89.72 116.59 83.45 122.98 70.93 122.98L68.54 122.98C56.15 122.98 49.76 116.72 49.76 105.67L49.76 58.25C49.76 44.39 56.02 38 68.54 38L70.93 38C83.32 38 89.72 44.26 89.72 56.78L89.72 85.15L61.61 85.15L61.61 104.6ZM78.26 73.96L78.26 56.38C78.26 51.45 75.86 49.06 70.93 49.06L69.07 49.06C64.14 49.06 61.74 51.45 61.74 56.38L61.74 73.96L78.26 73.96ZM97.44 39.07L109.16 39.07L109.16 44.39C111.96 41.46 116.75 38.13 123.41 38.13C133.4 38.13 138.33 44.79 138.33 54.52L138.33 106.46C138.33 116.32 133.4 122.85 123.41 122.85C116.62 122.85 111.96 119.65 109.16 116.85L109.16 143.63L97.44 143.63L97.44 39.07ZM109.16 107.53C112.36 110.33 116.09 111.79 119.95 111.79C124.21 111.79 126.74 109.79 126.74 105L126.74 55.98C126.74 51.19 124.35 49.19 119.95 49.19C116.09 49.19 112.36 50.79 109.16 53.45L109.16 107.53ZM145.39 93.14C145.39 82.89 148.72 78.76 157.65 75.7L173.36 70.37L173.36 56.38C173.36 51.45 170.97 48.79 166.04 48.79L164.17 48.79C159.25 48.79 156.85 51.45 156.85 56.38L156.85 68.1L145.53 68.1L145.53 56.78C145.53 44.39 151.79 38 164.31 38L166.57 38C178.96 38 185.35 44.26 185.35 56.78L185.35 121.92L173.63 121.92L173.63 116.72C170.43 119.78 166.04 122.85 159.38 122.85C150.05 122.85 145.66 117.52 145.66 108.2L145.66 93.14L145.39 93.14ZM173.36 107.93L173.36 80.62L162.71 84.62C158.45 86.35 156.98 88.48 156.98 93.28L156.98 105.93C156.98 109.93 158.98 111.93 162.71 111.93C166.31 111.79 169.5 110.59 173.36 107.93ZM220.52 121.92L220.52 55.18C220.52 51.05 218.52 49.19 214.92 49.19C211.73 49.19 208.26 50.39 204.13 53.32L204.13 121.92L192.41 121.92L192.41 39.07L204.13 39.07L204.13 44.39C207.46 41.2 211.99 38.13 218.39 38.13C224.38 38.13 228.38 40.53 230.51 44.93C234.64 41.33 239.57 38.13 246.36 38.13C255.42 38.13 260.08 43.73 260.08 52.79L260.08 122.05L248.36 122.05L248.36 55.18C248.36 51.05 246.36 49.19 242.76 49.19C239.57 49.19 236.1 50.39 231.97 53.32L231.97 121.92L220.52 121.92ZM34.97 46.66L34.97 61.98L15.39 80.62L34.97 99.01L34.97 114.59L5 86.35L5 75.16L34.97 46.66ZM304.97 75.16L304.97 86.35L275 114.59L275 99.01L294.58 80.62L275 61.84L275 46.66L304.97 75.16Z" />
</svg>