<svg xmlns="http://www.w3.org/2000/svg" viewBox="0 0 215 150" width="215" height="150">
	<style>
		tspan { white-space:pre }
		.shp0 { fill: #ffffff } 
	</style>
	<path id="Layer" fill-rule="evenodd" class="shp0" d="M43.61 38L43.61 43.71L3 43.71L3 38L43.61 38ZM93.5 38C101.33 38 107.25 43.71 107.25 43.71L49.37 43.71L49.37 38L93.5 38ZM151.54 38L153.62 43.71L118.6 43.71L118.6 38L151.54 38ZM211.34 38L211.34 43.71L176.64 43.71L178.72 38L211.34 38ZM43.61 49.1L43.61 54.82L3 54.82L3 49.1L43.61 49.1ZM111.89 49.11C113.21 50.42 113.96 54.82 113.96 54.82L49.37 54.82L49.37 49.11L111.89 49.11ZM155.53 49.11L157.45 54.82L118.6 54.82L118.6 49.11L155.53 49.11ZM211.34 49.11L211.34 54.82L172.64 54.82L174.56 49.11L211.34 49.11ZM32.26 60.21L32.26 65.93L14.67 65.93L14.67 60.21L32.26 60.21ZM78.63 60.21L78.63 65.93L61.04 65.93L61.04 60.21L78.63 60.21ZM114.44 60.21C114.44 62.91 113.33 65.93 113.33 65.93L95.74 65.93L95.74 60.21L114.44 60.21ZM159.38 60.21L161.46 65.93L130.27 65.93L130.27 60.21L159.38 60.21ZM199.98 60.21L199.98 65.93L168.65 65.93L170.73 60.21L199.98 60.21ZM32.26 71.32L32.26 77.03L14.67 77.03L14.67 71.32L32.26 71.32ZM110.92 71.32C109.73 74.1 105.97 77.03 105.97 77.03L61.04 77.03L61.04 71.32L110.92 71.32ZM163.45 71.32L165.21 76.16L166.97 71.32L199.98 71.32L199.98 77.03L182.4 77.03L182.4 73.86L181.2 77.03L148.98 77.03L147.86 73.86L147.86 77.03L130.27 77.03L130.27 71.32L163.45 71.32ZM32.26 82.43L32.26 88.14L14.67 88.14L14.67 82.43L32.26 82.43ZM105.97 82.43C105.97 82.43 109.73 85.37 110.92 88.14L61.04 88.14L61.04 82.43L105.97 82.43ZM147.86 82.43L147.86 88.14L130.27 88.14L130.27 82.43L147.86 82.43ZM179.36 82.43L177.34 88.14L153.18 88.14L151.06 82.43L179.36 82.43ZM199.98 82.43L199.98 88.14L182.39 88.14L182.39 82.43L199.98 82.43ZM32.26 93.53L32.26 99.24L14.67 99.24L14.67 93.53L32.26 93.53ZM78.63 93.53L78.63 99.24L61.04 99.24L61.04 93.53L78.63 93.53ZM113.33 93.53C113.33 93.53 114.44 96.55 114.44 99.24L95.74 99.24L95.74 93.53L113.33 93.53ZM147.86 93.53L147.86 99.24L130.27 99.24L130.27 93.53L147.86 93.53ZM175.39 93.53L173.31 99.24L157.11 99.24L155.05 93.53L175.39 93.53ZM199.98 93.53L199.98 99.24L182.39 99.24L182.39 93.53L199.98 93.53ZM43.93 104.64L43.93 110.36L3.32 110.36L3.32 104.64L43.93 104.64ZM113.96 104.64C113.96 104.64 113.21 109.05 111.89 110.36L49.37 110.36L49.37 104.64L113.96 104.64ZM147.86 104.64L147.86 110.36L118.92 110.36L118.92 104.64L147.86 104.64ZM171.4 104.64L169.41 110.36L161.17 110.36L159.05 104.64L171.4 104.64ZM211.66 104.64L211.66 110.36L182.39 110.36L182.39 104.64L211.66 104.64ZM43.93 115.75L43.93 121.46L3.32 121.46L3.32 115.75L43.93 115.75ZM107.25 115.75C107.25 115.75 101.33 121.45 93.5 121.45L49.37 121.45L49.37 115.75L107.25 115.75ZM147.86 115.75L147.86 121.46L118.92 121.46L118.92 115.75L147.86 115.75ZM167.53 115.75L165.46 121.45L165.11 121.45L163.07 115.75L167.53 115.75ZM211.66 115.75L211.66 121.46L182.39 121.46L182.39 115.75L211.66 115.75Z" />
</svg>