<svg xmlns="http://www.w3.org/2000/svg" viewBox="0 0 580 150" width="580" height="150">
	<style>
		tspan { white-space:pre }
		.shp0 { fill: #ffffff } 
	</style>
	<path id="Layer" fill-rule="evenodd" class="shp0" d="M103.89 59.54L98.26 57.59L98.72 62.76L94.81 58.62L93.2 66.9L91.7 58.62L86.64 63.8L88.71 57.59L84.11 57.93L87.1 54.59L79.74 52.98L86.99 51.49L82.62 46.89L87.68 47.81L85.95 42.17L91.24 46.32L93.08 37L95.15 45.17L99.52 42.17L98.37 48.5L104.81 46.89L101.13 51.26L108.03 52.76L99.75 54.36L103.89 59.54ZM93.43 48.73C91.47 48.73 89.98 50.23 89.98 52.18C89.98 54.14 91.47 55.63 93.43 55.63C95.38 55.63 96.88 54.14 96.88 52.18C96.88 50.23 95.38 48.73 93.43 48.73ZM577 72.88C577 75.53 574.82 77.71 572.17 77.71C569.52 77.71 567.34 75.53 567.34 72.88C567.34 70.24 569.52 68.05 572.17 68.05C574.82 68.05 577 70.12 577 72.88ZM572.17 68.74C569.99 68.74 568.14 70.58 568.14 72.77C568.14 74.95 569.99 76.79 572.17 76.79C574.36 76.79 576.19 74.95 576.19 72.77C576.19 70.58 574.36 68.86 572.17 68.74ZM73.3 50.69L83.19 110.6L62.15 110.6L59.16 77.71L58.81 77.71C58.46 79.67 58.12 81.74 57.43 83.69L48.81 110.6L36.04 110.6L28.22 85.19C27.53 82.66 26.96 80.24 26.84 77.71L26.15 77.71C25.92 80.13 25.81 82.54 25.58 84.96L23.05 110.6L2 110.6L11.66 50.69L34.09 50.69L42.37 82.2L42.94 82.2C43.29 79.55 43.74 76.79 44.44 74.26L51.22 50.69L73.3 50.69ZM124.7 67.36C128.96 67.36 133.44 68.17 137.58 69.55L137.58 86.45C135.4 84.73 132.98 83 129.99 83C126.2 83 123.56 85.53 123.56 89.33C123.56 92.78 126.31 95.42 129.65 95.42C132.87 95.42 135.17 93.93 137.58 92.2L136.66 109.57C133.45 110.6 129.88 111.52 126.31 111.52C115.05 111.52 106.54 106.35 103.78 96.57L103.78 110.6L83.31 110.6L83.31 68.4L103.89 68.4L103.89 83.12C106.42 73.92 114.47 67.36 124.7 67.36ZM545.14 67.59L566.76 67.48L530.31 127.16L508.69 127.16L522.95 105.54L511.68 69.78L505.7 107.27C503.17 123.71 488.56 130.38 473.84 130.38C467.29 130.38 461.88 129.23 456.25 127.05L454.29 126.36L461.08 112.1C464.53 115.43 470.05 117.27 475.11 117.27C480.63 117.27 484.65 113.25 485.92 107.96L486.95 103.7L486.38 103.7C483.62 108.3 477.75 110.72 472.92 110.72C462.92 110.72 457.97 102.09 457.97 92.89L428.76 92.89C428.19 96.34 428.19 100.14 432.44 100.14C434.63 100.14 436.47 98.64 437.16 96.69L457.17 96.69C452.91 106.81 440.72 111.52 431.06 111.52C417.72 111.52 406.68 104.73 408.98 90.13C409.33 88.18 409.79 86.34 410.48 84.61L405.99 84.38L401.85 110.6L381.16 110.6L385.3 84.27L380.93 84.61L376.79 110.6L356.66 110.6L358.16 105.08L357.7 105.08C353.33 109.11 349.53 111.64 343.78 111.64C332.28 111.64 327.8 100.02 329.41 89.79C329.41 89.33 329.52 88.87 329.64 88.41C327.91 87.26 326.53 86.34 324.12 86.34C318.83 86.34 315.61 89.44 314.8 94.73L312.27 110.95L291.8 110.95L295.94 84.96L289.04 84.5L284.9 110.72L264.2 110.72L268.69 84.49L265.12 84.73C265.47 86.45 265.47 88.41 265.12 90.7C262.82 104.97 248.68 112.1 235.68 112.1C228.21 112.1 219.93 110.03 213.72 106.69C209.12 109.91 203.14 111.52 197.04 111.52C183.82 111.52 171.4 104.05 171.4 90.02C171.4 88.75 171.51 87.6 171.63 86.45C170.82 86.22 170.02 85.99 168.98 85.99C163.69 85.99 160.93 89.1 160.93 94.39L160.93 110.6L140.46 110.6L140.46 68.4L160.93 68.4L160.47 74.03L160.93 74.03C164.5 68.51 168.29 67.36 175.19 67.48L175.19 77.25C179.79 70.81 187.84 67.48 196.93 67.48C210.61 67.48 222.11 75.07 222.45 89.44C223.14 90.13 223.61 90.59 223.61 90.59C227.06 93.7 231.31 96.11 236.37 96.11C238.44 96.11 242 95.19 242.47 92.55C242.81 89.9 240.05 89.56 238.1 89.21L233.84 88.41C225.56 86.91 219.23 81.97 220.73 72.54C223.03 58.28 237.29 50.34 250.28 50.34C257.07 50.34 263.17 52.07 268.45 55.63L260.18 70.93C256.84 68.4 252.93 66.44 248.22 66.44C246.38 66.44 243.39 67.25 243.04 69.66C242.7 71.96 245.34 72.31 246.95 72.65L251.67 73.8C257.42 75.07 261.79 77.48 263.86 81.74L265.93 68.86L270.87 69.2L273.17 55.06L293.87 55.06L291.69 69.2L298.7 68.86L319.17 68.86L317.79 74.49L318.25 74.49C322.73 68.97 326.64 67.82 333.54 67.94L330.9 84.61C334 75.64 341.36 67.59 351.37 67.59C356.43 67.59 360.34 69.43 362.75 73.57L363.21 73.57L363.33 68.51L383.45 68.51L383.45 68.74L387.71 68.97L390.01 54.83L410.71 54.83L408.52 68.97L415.42 68.63L413.81 78.75C418.99 71.61 427.73 67.48 436.93 67.48C449.23 67.48 458.32 73.8 459.35 84.73C462.23 75.53 469.82 66.67 480.05 66.67C485.46 66.67 489.25 69.2 491.32 73.69L491.9 73.69L492.24 67.59L533.07 67.59L535.14 84.15L535.25 90.59L535.83 90.59L537.9 84.15L545.14 67.59ZM203.48 89.9C203.48 86.45 201.18 83.69 197.73 83.69C194.28 83.69 191.98 86.45 191.98 89.9C191.98 93.24 194.51 95.65 197.73 95.65C200.95 95.65 203.48 93.24 203.48 89.9ZM356.08 83.58C352.87 83.58 350.33 86.22 349.87 89.33C349.42 92.66 350.56 95.54 354.25 95.54C358.04 95.54 360.23 92.43 360.69 89.21C361.15 85.88 359.31 83.58 356.08 83.58ZM438.88 79.78C438.08 78.86 436.93 78.29 435.55 78.29C435.2 78.29 434.86 78.29 434.51 78.4C432.1 78.86 430.26 80.93 429.8 84.04L429.8 84.38L440.03 84.38L440.03 84.15C440.38 82.43 439.92 80.93 438.88 79.78ZM485.11 82.54C481.78 82.54 479.13 85.3 478.56 88.64C477.98 92.09 479.82 94.62 483.39 94.62C486.84 94.62 489.02 91.97 489.48 88.75C489.94 85.65 488.56 82.66 485.11 82.54Z" />
</svg>