<svg xmlns="http://www.w3.org/2000/svg" viewBox="0 0 370 150" width="370" height="150">
	<style>
		tspan { white-space:pre }
		.shp0 { fill: #ffffff } 
	</style>
	<path id="path10" fill-rule="evenodd" class="shp0" d="M113.44 36.02L147.7 36.02L152.08 36.23L154.03 36.47L155.86 36.8L157.51 37.28L159.01 37.85L160.33 38.54L161.53 39.35L162.55 40.31L163.33 41.39L163.99 42.62L164.44 44L164.71 45.53L164.8 47.18L164.65 49.04L164.29 51.05L163.66 53.51L163.44 54.05L163.24 54.05L163.3 54.39L162.73 55.79L161.56 57.92L160 59.81L158.11 61.52L155.83 62.93L153.1 64.16L149.89 65.09L149.89 65.33L151.84 65.6L153.52 66.02L154.9 66.68L156.04 67.52L156.94 68.57L157.57 69.8L157.99 71.27L158.17 72.89L158.14 74.93L157.99 77.24L157.45 82.58L157.03 88.64L157.03 91.88L157.24 95.15L134.68 95.15L134.56 91.31L134.74 86.9L135.28 78.26L135.28 77.21L135.13 76.34L134.83 75.59L134.38 75.05L133.72 74.63L132.94 74.36L131.89 74.18L130.69 74.12L127.87 74.12L123.43 95.15L101.02 95.15L113.44 36.02ZM132.58 60.74L134.26 60.65L135.79 60.44L137.17 59.96L138.4 59.36L139.45 58.55L140.38 57.5L141.01 56.18L141.46 54.68L141.67 53.21L141.52 52.04L141.04 51.17L140.32 50.51L139.36 50.03L138.13 49.73L136.69 49.58L135.1 49.55L133.12 49.55L130.75 60.74L132.58 60.74ZM170.86 96.35L163.3 54.39L163.44 54.05L183.88 54.05L184.81 76.61L184.99 76.61L195.01 54.05L214.45 54.05L183.4 110.96L162.25 110.96L170.86 96.35ZM235.27 90.44L233.62 92.06L231.91 93.35L230.17 94.4L228.43 95.15L226.63 95.75L224.89 96.08L223.15 96.29L221.44 96.35L219.67 96.29L217.99 96.02L216.43 95.54L214.99 94.94L213.67 94.13L212.47 93.17L211.45 92L210.55 90.68L209.83 89.21L209.2 87.56L208.81 85.76L208.54 83.75L208.45 81.59L208.57 79.25L208.87 76.79L209.38 74.12L210.04 71.3L210.85 68.72L211.75 66.38L212.77 64.22L213.91 62.24L215.14 60.5L216.43 58.97L217.81 57.62L219.19 56.42L220.72 55.4L222.25 54.59L223.81 53.9L225.4 53.39L227.02 53.06L228.61 52.85L230.26 52.79L231.91 52.85L233.56 53.06L235.06 53.39L236.56 53.9L237.91 54.56L239.17 55.46L240.28 56.54L241.3 57.83L245.77 36.02L265.42 36.02L252.91 95.15L234.61 95.15L235.27 90.44ZM238.78 68.27L238.75 67.4L238.57 66.65L238.3 65.99L237.97 65.45L237.46 65.03L236.89 64.7L236.2 64.52L235.45 64.43L234.04 64.61L232.84 65.09L232.33 65.48L231.85 65.9L231.04 67.07L230.32 68.54L229.75 70.28L228.76 74.66L228.01 78.53L227.89 80.27L227.98 81.74L228.28 83L228.58 83.51L228.91 83.93L229.39 84.29L229.9 84.56L230.56 84.71L231.28 84.74L232.72 84.56L233.77 84.08L234.61 83.39L235.27 82.55L235.96 81.38L236.56 79.73L237.16 77.48L237.73 74.66L238.54 70.73L238.72 69.5L238.78 68.27ZM304.45 82.01L303.76 83.69L302.98 85.28L302.05 86.78L301.03 88.19L299.86 89.45L298.57 90.65L297.16 91.7L295.6 92.66L293.89 93.53L292.06 94.28L290.08 94.88L287.98 95.42L285.7 95.81L283.27 96.14L280.69 96.29L277.93 96.35L275.74 96.29L273.58 96.08L271.54 95.75L269.59 95.27L267.76 94.61L266.11 93.77L264.58 92.81L263.2 91.61L262.03 90.23L261.04 88.64L260.26 86.87L259.72 84.86L259.42 82.61L259.36 80.15L259.6 77.42L260.14 74.45L260.77 71.84L261.58 69.41L262.57 67.13L263.74 65.03L265.06 63.08L266.56 61.31L268.18 59.69L269.92 58.28L271.87 56.99L273.88 55.88L276.04 54.95L278.32 54.17L280.72 53.57L283.21 53.12L285.79 52.85L288.49 52.79L291.22 52.85L293.74 53.18L296.05 53.63L298.15 54.26L300.01 55.07L301.63 56.06L303.07 57.26L304.3 58.61L305.32 60.11L306.07 61.82L306.7 63.68L307.03 65.69L307.18 67.88L307.15 70.22L306.88 72.74L306.37 75.41L305.74 78.26L277.93 78.26L277.63 79.49L277.42 81.14L277.36 82.55L277.51 83.69L277.9 84.65L278.47 85.37L279.31 85.91L280.36 86.18L281.71 86.3L282.55 86.21L283.33 86.03L284.92 85.19L285.64 84.62L286.33 83.9L286.9 83L287.41 82.01L304.45 82.01ZM290.14 69.5L290.26 68.96L290.44 67.58L290.41 66.38L290.17 65.33L289.75 64.49L289.15 63.77L288.37 63.32L287.41 63.05L286.3 62.93L285.16 63.05L284.08 63.32L283.15 63.77L282.22 64.49L281.47 65.33L280.84 66.38L280.3 67.58L279.88 68.96L279.64 69.5L290.14 69.5ZM332.29 53.48L330.31 62.93L330.43 62.93L331.81 60.74L333.34 58.76L335.02 56.99L336.79 55.46L338.74 54.2L340.78 53.3L342.94 52.7L344.05 52.55L345.22 52.52L346.87 52.58L348.34 52.79L344.89 69.5L343 69.14L340.57 68.96L339.49 68.99L338.47 69.2L336.43 69.8L334.48 70.82L332.71 72.11L331.06 73.73L329.74 75.59L328.66 77.69L328 79.91L324.79 95.15L304.99 95.15L313.6 53.48L332.29 53.48ZM101.8 40.16L94.96 41.54L88.45 43.13L82.27 44.96L76.48 46.91L71.05 49.04L66.01 51.35L61.39 53.84L59.26 55.13L57.25 56.45L96.49 65.42L95.86 68.27L7 47.54L62.95 47.54L67.27 45.92L71.83 44.36L76.51 42.95L81.4 41.63L86.44 40.43L91.63 39.38L96.97 38.48L102.43 37.7L101.8 40.16ZM168.46 129.77L163.09 130.82L157.54 131.75L151.84 132.53L146.08 133.13L140.14 133.61L134.17 133.91L128.17 134L122.98 133.91L117.82 133.73L112.78 133.4L107.74 132.98L98.08 131.78L88.78 130.16L79.93 128.12L75.7 126.92L71.59 125.66L67.63 124.31L63.82 122.84L60.13 121.34L56.65 119.72L53.29 118.01L50.11 116.24L47.11 114.38L44.29 112.46L41.68 110.48L39.25 108.44L37 106.31L34.99 104.15L33.19 101.96L31.57 99.68L30.25 97.31L29.11 94.97L28.24 92.54L27.61 90.11L27.19 87.59L27.07 85.1L27.28 81.65L27.61 79.97L28.06 78.26L28.57 76.64L29.23 74.99L30.85 71.78L32.92 68.66L34.09 67.13L35.38 65.63L36.79 64.16L38.26 62.75L39.85 61.34L41.53 59.96L50.26 61.82L48.4 63.74L46.78 65.72L45.37 67.76L44.23 69.8L43.33 71.9L42.7 74L42.28 76.13L42.19 78.26L42.34 80.42L42.7 82.58L43.36 84.71L44.26 86.75L45.4 88.79L46.81 90.8L48.43 92.78L50.26 94.67L52.36 96.5L54.58 98.33L57.1 100.1L59.77 101.81L62.65 103.46L65.68 105.05L68.95 106.55L72.37 108.02L75.94 109.4L79.66 110.72L87.58 113.12L96.07 115.22L105.07 116.96L114.52 118.37L124.39 119.39L134.59 120.02L139.84 120.2L145.12 120.26L154.09 120.08L162.85 119.6L171.31 118.82L179.47 117.86L173.71 128.6L168.46 129.77ZM352.21 59.09L352.33 57.83L352.66 56.63L353.2 55.61L353.92 54.68L354.85 53.87L355.87 53.3L357.01 52.91L358.24 52.79L359.47 52.91L360.61 53.3L361.66 53.87L362.59 54.68L363.31 55.61L363.88 56.63L364.24 57.83L364.36 59.09L364.24 60.35L363.88 61.55L363.31 62.6L362.59 63.5L361.66 64.28L360.61 64.82L359.47 65.21L358.24 65.33L357.01 65.21L355.87 64.82L354.85 64.28L353.92 63.5L353.2 62.6L352.66 61.55L352.33 60.35L352.21 59.09ZM363.61 59.09L363.49 58.01L363.19 56.96L362.71 56.03L362.02 55.22L361.21 54.53L360.34 54.02L359.32 53.66L358.24 53.57L357.16 53.66L356.14 54.02L355.18 54.53L354.37 55.22L353.71 56.03L353.17 56.96L352.87 58.01L352.75 59.09L352.87 60.2L353.17 61.19L353.71 62.12L354.37 62.9L355.18 63.56L356.14 64.01L357.16 64.31L358.24 64.43L359.32 64.31L360.34 64.01L361.21 63.56L362.02 62.9L362.71 62.12L363.19 61.19L363.49 60.2L363.61 59.09ZM361.36 62.6L360.16 62.6L358.33 59.3L356.8 59.3L356.8 62.6L355.87 62.6L355.87 55.67L359.02 55.67L359.77 55.73L360.49 56L360.91 56.21L361.18 56.6L361.36 57.41L361.21 58.34L360.73 58.91L360.04 59.24L359.14 59.3L361.36 62.6ZM358.87 58.64L359.62 58.58L360.28 58.22L360.43 57.89L360.49 57.41L360.34 56.72L359.95 56.36L359.38 56.21L356.8 56.21L356.8 58.64L358.87 58.64Z" />
</svg>