<svg xmlns="http://www.w3.org/2000/svg" viewBox="0 0 565 150" width="565" height="150">
	<style>
		tspan { white-space:pre }
		.shp0 { fill: #ffffff } 
	</style>
	<path id="path29" fill-rule="evenodd" class="shp0" d="M64.13 58.84C64.13 62.63 63.28 66.42 60.94 66.42L42.13 66.42L42.13 108.83C42.13 111.17 38.01 112.03 33.92 112.03C29.83 112.03 26 110.87 26 108.83L26 66.2L7.23 66.2C5.19 66.2 4 62.34 4 58.54C4 54.75 5.19 50.96 7.23 50.96L60.94 50.96C63.28 50.96 64.13 55.05 64.13 58.84ZM67.07 81.33C67.13 77.19 68.01 73.12 69.65 69.32C71.29 65.53 73.66 62.1 76.63 59.22C79.6 56.35 83.11 54.08 86.95 52.56C90.8 51.05 94.9 50.3 99.03 50.37C116.69 50.37 131.03 64.12 131.03 81.33C131.03 98.57 116.95 112.29 99.07 112.29C94.94 112.36 90.83 111.61 86.99 110.09C83.15 108.57 79.64 106.31 76.67 103.43C73.7 100.56 71.33 97.13 69.69 93.33C68.05 89.54 67.17 85.46 67.11 81.33L67.07 81.33ZM99.03 96.83C101.11 96.86 103.17 96.48 105.1 95.72C107.03 94.96 108.8 93.83 110.3 92.39C111.79 90.96 113 89.24 113.84 87.34C114.68 85.45 115.14 83.4 115.2 81.33C115.2 72.85 108.14 65.87 99.07 65.87C96.99 65.82 94.93 66.18 92.99 66.93C91.06 67.68 89.29 68.81 87.79 70.24C86.29 71.68 85.09 73.4 84.26 75.3C83.43 77.2 82.98 79.25 82.94 81.33C82.94 89.8 90 96.83 99.07 96.83L99.03 96.83ZM233.16 108.76C233.16 110.8 229.04 111.95 225.25 111.95C221.12 111.95 217.29 110.8 217.29 108.76L217.29 76.61C217.26 75.14 216.93 73.69 216.34 72.34C215.75 70.99 214.9 69.77 213.85 68.74C212.79 67.72 211.55 66.91 210.18 66.36C208.82 65.81 207.36 65.53 205.88 65.53C204.4 65.5 202.93 65.76 201.55 66.3C200.17 66.84 198.91 67.65 197.85 68.68C196.78 69.71 195.93 70.94 195.35 72.3C194.76 73.66 194.45 75.13 194.44 76.61L194.44 108.76C194.44 110.8 190.31 111.95 186.52 111.95C182.4 111.95 178.57 110.8 178.57 108.76L178.57 76.61C178.53 75.13 178.2 73.68 177.61 72.33C177.02 70.98 176.17 69.76 175.11 68.73C174.05 67.71 172.8 66.9 171.43 66.35C170.06 65.8 168.6 65.52 167.12 65.53C165.64 65.5 164.17 65.77 162.8 66.31C161.42 66.85 160.17 67.66 159.11 68.69C158.04 69.72 157.2 70.95 156.62 72.31C156.03 73.67 155.73 75.13 155.71 76.61L155.71 108.79C155.71 110.84 151.59 111.99 147.76 111.99C143.67 111.99 139.84 110.84 139.84 108.79L139.84 76.64C139.84 62.08 152.18 50.37 167.12 50.37C168.91 50.38 170.69 50.56 172.45 50.91C174.2 51.26 175.92 51.78 177.57 52.45C179.23 53.12 180.82 53.95 182.32 54.93C183.82 55.9 185.23 57.01 186.52 58.25C191.5 53.3 198.23 50.37 205.88 50.37C220.83 50.37 233.16 62.08 233.16 76.64L233.16 108.76ZM467.01 108.76C467.01 110.8 462.89 111.95 459.09 111.95C454.97 111.95 451.18 110.8 451.18 108.76L451.18 76.61C451.14 75.13 450.82 73.68 450.22 72.33C449.63 70.98 448.78 69.76 447.72 68.73C446.66 67.71 445.41 66.9 444.04 66.35C442.67 65.8 441.21 65.52 439.73 65.53C438.25 65.5 436.78 65.76 435.4 66.3C434.02 66.84 432.76 67.65 431.69 68.68C430.63 69.71 429.78 70.94 429.19 72.3C428.61 73.66 428.3 75.13 428.28 76.61L428.28 108.76C428.28 110.8 424.46 111.95 420.37 111.95C416.24 111.95 412.41 110.8 412.41 108.76L412.41 76.61C412.38 75.14 412.05 73.69 411.46 72.34C410.87 70.99 410.02 69.77 408.97 68.74C407.91 67.72 406.67 66.91 405.3 66.36C403.94 65.81 402.48 65.53 401 65.53C399.52 65.5 398.05 65.76 396.67 66.3C395.29 66.84 394.03 67.65 392.97 68.68C391.9 69.71 391.05 70.94 390.47 72.3C389.88 73.66 389.57 75.13 389.56 76.61L389.56 108.79C389.56 110.84 385.43 111.99 381.64 111.99C377.52 111.99 373.69 110.84 373.69 108.79L373.69 76.64C373.69 62.08 386.03 50.37 401 50.37C402.79 50.38 404.57 50.57 406.32 50.92C408.07 51.27 409.79 51.79 411.44 52.46C413.09 53.13 414.68 53.96 416.18 54.93C417.68 55.9 419.08 57.01 420.37 58.25C425.35 53.3 432.08 50.37 439.73 50.37C454.67 50.37 467.01 62.08 467.01 76.64L467.01 108.76ZM295.05 50.96C297.13 50.96 298.28 54.75 298.02 58.84C298.02 62.63 297.13 66.42 294.79 66.42L275.98 66.42L275.98 108.79C275.98 110.84 271.89 111.99 268.06 111.99C263.97 111.99 260.15 110.84 260.15 108.79L260.15 66.16L241.38 66.16C239.33 66.16 238.14 62.34 238.14 58.54C238.14 54.75 239.04 50.96 241.38 50.96L295.05 50.96ZM301.21 81.33C301.28 77.19 302.15 73.12 303.8 69.32C305.44 65.53 307.81 62.1 310.78 59.22C313.75 56.35 317.25 54.08 321.1 52.56C324.94 51.05 329.04 50.3 333.18 50.37C350.83 50.37 365.18 64.12 365.18 81.33C365.18 98.57 351.09 112.29 333.21 112.29C329.08 112.36 324.98 111.61 321.13 110.09C317.29 108.57 313.78 106.31 310.81 103.43C307.85 100.56 305.47 97.13 303.83 93.33C302.19 89.54 301.31 85.46 301.25 81.33L301.21 81.33ZM338.97 95.71C340.9 94.95 342.66 93.82 344.16 92.38C345.65 90.94 346.85 89.23 347.69 87.33C348.53 85.44 348.99 83.4 349.05 81.33C349.05 72.85 341.99 65.87 332.92 65.87C330.85 65.84 328.79 66.22 326.87 66.98C324.94 67.74 323.19 68.87 321.69 70.3C320.2 71.73 319 73.44 318.16 75.33C317.31 77.22 316.85 79.26 316.79 81.33C316.84 83.4 317.31 85.44 318.14 87.33C318.98 89.23 320.18 90.94 321.68 92.38C323.17 93.82 324.93 94.95 326.86 95.71C328.79 96.47 330.84 96.85 332.92 96.83C334.99 96.85 337.05 96.47 338.97 95.71ZM530.08 96.83C530.68 97.09 531.27 97.68 532.42 97.98C533.02 98.87 533.02 99.43 533.02 100.02C532.72 101.47 531.57 102.96 530.38 103.81C517.48 114.93 511.02 120.17 500.76 116.08C487.27 110.84 479.91 97.09 478.12 88.35C477.86 86.86 477.01 83.67 478.12 82.52C478.76 81.62 479.31 81.62 479.61 81.62C479.91 81.62 480.21 82.22 480.21 82.22L480.21 82.52C481.1 85.42 481.99 88.35 483.14 90.95C483.44 91.85 484.03 93 484.89 93.29C485.48 93.59 485.78 93.59 486.08 93.29C486.37 93 486.67 92.44 486.37 91.25L486.37 90.95C485.78 87.46 485.19 84.56 484.63 80.18C484.63 78.13 484.33 76.09 484.33 74.04C484.33 74.04 484.03 71.4 486.37 70.25C487.27 69.66 487.82 69.92 488.12 69.92C488.72 70.25 489.01 71.11 489.01 71.4C489.01 73.71 489.61 75.19 489.91 77.8L490.2 79.28C490.46 81.92 490.76 84.56 491.35 86.86L491.35 87.46C491.65 88.35 492.25 89.5 493.4 89.5C494.59 89.5 494.89 88.65 494.89 86.6L494.89 85.71C494.81 84.64 494.76 83.57 494.72 82.5C494.68 81.43 494.67 80.36 494.67 79.28C494.67 78.21 494.68 77.14 494.72 76.07C494.76 74.99 494.81 73.92 494.89 72.85C494.89 70.81 494.89 68.47 495.18 66.42C495.18 66.21 495.19 66 495.23 65.8C495.26 65.59 495.32 65.39 495.39 65.19C495.46 64.99 495.55 64.8 495.66 64.62C495.77 64.44 495.9 64.28 496.04 64.12C496.63 63.52 497.52 63.23 498.42 62.93C498.64 62.87 498.86 62.83 499.09 62.82C499.31 62.8 499.54 62.81 499.76 62.83C499.99 62.86 500.21 62.9 500.43 62.97C500.64 63.04 500.85 63.12 501.06 63.23C501.61 63.82 501.61 64.38 501.61 65.57L501.35 69.66L501.02 72C500.76 76.09 500.76 80.18 501.02 83.67L501.02 86.31C501.02 87.46 501.35 88.91 502.5 89.21C503.99 89.5 504.29 88.61 504.55 87.5C504.55 86.86 504.85 86.31 504.85 86.01C506.89 76.38 507.48 73.15 508.38 70.81C508.97 68.77 511.61 68.21 513.36 68.47C515.14 69.06 516 69.36 516.29 70.81C516.29 71.7 516.29 72.85 516 73.75C514.55 80.18 511.61 92.74 511.31 94.45C511.02 95.04 511.02 95.64 511.02 95.93C510.72 96.53 510.72 97.09 510.72 97.68C510.42 100.02 511.05 102.66 513.65 103.22C517.19 104.11 522.2 99.72 524.8 97.38L525.1 97.09C525.44 96.79 525.82 96.55 526.24 96.38C526.66 96.21 527.1 96.11 527.55 96.09C527.99 96.06 528.44 96.12 528.88 96.24C529.31 96.37 529.72 96.56 530.08 96.83ZM559.74 65.57C562.04 72.26 562.38 81.92 557.96 86.01C553.27 92.14 541.83 92.74 531.57 92.44C527.15 92.44 523.35 92.44 519.82 92.14C517.74 91.85 516 91.55 515.14 90.4C515.14 90.4 514.84 89.8 514.84 89.5L514.84 88.65C514.84 88.05 514.84 86.6 515.44 85.71C516 84.82 517.19 84.26 519.23 84.26L522.46 84.26C526.29 84.56 530.68 84.86 533.02 83.37C534.5 82.52 534.8 81.33 534.8 80.47C534.8 80.18 534.5 79.28 534.5 78.99C533.61 76.94 530.97 75.19 529.23 74.04C527.44 73.15 527.18 72.85 525.7 72C520.72 69.06 516.59 67.32 511.61 64.38C511.02 63.82 510.12 63.23 509.86 62.34C509.86 61.48 509.86 60.29 510.72 59.44C511.61 58.25 513.1 57.39 515.7 58.25C516.97 58.71 518.24 59.21 519.49 59.73C520.74 60.26 521.98 60.82 523.21 61.4C524.43 61.99 525.65 62.6 526.84 63.25C528.04 63.89 529.22 64.57 530.38 65.27C530.94 65.57 531.57 65.87 532.42 66.16C533.02 66.16 533.61 66.16 533.91 65.83C535.06 64.71 533.91 63.52 533.31 63.23C525.99 57.99 523.91 56.8 514.84 50.96C513.95 50.41 513.65 49.81 513.65 48.92C513.65 48.03 515.14 47.17 515.14 47.17C517.48 45.98 518.34 46.28 520.72 47.47C522.09 48.24 523.44 49.03 524.79 49.84C526.14 50.65 527.47 51.48 528.79 52.34C530.11 53.19 531.42 54.06 532.71 54.95C534 55.85 535.28 56.76 536.55 57.69C536.85 58.25 537.14 58.25 537.44 58.54C537.74 58.84 538.89 59.73 539.78 58.84C540.38 58.25 540.38 57.39 538.89 55.94C537.44 54.16 528.93 46.87 527.15 45.43C527.15 45.43 526.59 44.53 526.85 43.94C527.15 43.38 528.04 43.08 528.04 43.08C528.47 43.01 528.91 42.99 529.35 43C529.78 43.02 530.22 43.08 530.65 43.18C531.07 43.28 531.49 43.43 531.89 43.61C532.28 43.79 532.66 44.02 533.02 44.27C537.14 46.87 543.91 52.45 546.51 55.05C547.1 55.65 547.4 55.94 547.7 55.94C548.29 56.2 548.59 55.94 548.89 55.94C549.74 55.35 549.44 54.46 548.89 53.6C548 52.41 545.36 49.51 543.31 47.77C542.42 46.87 541.83 45.98 541.83 45.72C541.83 45.72 541.83 45.43 542.12 45.43L542.72 45.43C543.31 45.72 543.57 45.72 543.87 45.72C544.22 45.86 544.56 46.02 544.89 46.18C545.23 46.35 545.55 46.53 545.87 46.72C546.19 46.92 546.51 47.12 546.81 47.34C547.12 47.56 547.41 47.79 547.7 48.03C549.11 49.14 550.44 50.36 551.68 51.67C552.91 52.99 554.04 54.39 555.06 55.88C556.08 57.36 556.98 58.92 557.77 60.55C558.55 62.17 559.21 63.85 559.74 65.57Z" />
</svg>