<svg xmlns="http://www.w3.org/2000/svg" viewBox="0 0 440 150" width="440" height="150">
	<style>
		tspan { white-space:pre }
		.shp0 { fill: #ffffff } 
	</style>
	<path id="Layer" fill-rule="evenodd" class="shp0" d="M4 54.79L12.64 54.79L26.03 103.46L26.18 103.46L40.58 54.79L50.01 54.79L64.34 103.46L64.55 103.46L77.94 54.79L86.51 54.79L68.8 115.63L60.16 115.63L45.33 65.95L45.18 65.95L30.5 115.63L21.78 115.63L4 54.79ZM92.49 74.88L100.19 74.88L100.19 115.63L92.49 115.63L92.49 74.88ZM96.38 56.45C98.82 56.45 100.84 58.46 100.84 60.91C100.84 63.36 98.82 65.38 96.38 65.38C93.93 65.38 91.91 63.36 91.91 60.91C91.91 58.46 93.93 56.45 96.38 56.45ZM113.15 50.69L120.86 50.69L120.86 115.63L113.15 115.63L113.15 50.69ZM153.62 85.1C151.82 82.87 149.15 81.07 145.26 81.07C141.66 81.07 138.5 82.73 138.5 85.61C138.5 90.5 145.48 91.22 148.86 91.94C155.56 93.6 160.74 96.19 160.74 103.82C160.74 113.04 152.32 116.64 144.26 116.64C137.56 116.64 132.59 114.91 128.56 109.44L134.39 104.62C136.91 107.14 139.79 109.44 144.26 109.44C148.22 109.44 152.54 107.78 152.54 104.26C152.54 99.65 146.06 98.78 142.74 97.99C136.12 96.34 130.29 94.18 130.29 86.4C130.29 77.9 138.14 73.87 145.77 73.87C151.17 73.87 156.78 75.74 159.66 80.57L153.62 85.1ZM188.54 73.87C200.63 73.87 210.21 83.38 210.21 95.26C210.21 107.14 200.63 116.64 188.54 116.64C176.44 116.64 166.86 107.06 166.86 95.26C166.94 83.38 176.44 73.87 188.54 73.87ZM188.54 109.44C196.82 109.44 201.93 103.54 201.93 95.26C201.93 86.98 196.74 81.07 188.54 81.07C180.26 81.07 175.14 86.98 175.14 95.26C175.14 103.54 180.33 109.44 188.54 109.44ZM224.61 74.88L224.61 81.14L224.75 81.14C226.7 76.82 231.88 73.87 238.14 73.87C246.06 73.87 252.9 78.62 252.9 89.42L252.9 115.63L245.2 115.63L245.2 91.58C245.2 83.95 240.81 81.07 235.91 81.07C229.5 81.07 224.54 85.18 224.54 94.68L224.54 115.63L216.83 115.63L216.83 74.88L224.61 74.88ZM312.02 115.42L300.57 115.42L300.57 90L274.86 90L274.86 115.42L263.34 115.42L263.34 55.22L274.86 55.22L274.86 79.34L300.57 79.34L300.57 55.22L312.02 55.22L312.02 115.42ZM347.22 116.5C330.81 116.5 318.06 102.67 318.06 85.1C318.06 67.46 330.81 53.71 347.22 53.71C360.83 53.71 370.91 61.42 374.66 73.73L362.27 73.73C359.61 68.26 354.21 64.22 347.3 64.22C337.43 64.22 329.58 73.73 329.58 85.1C329.58 96.55 337.36 106.13 347.3 106.13C354.14 106.13 359.61 101.88 362.27 96.41L374.58 96.41C370.77 108.58 360.62 116.5 347.22 116.5ZM436 115.42L425.42 115.42L425.42 108.94C421.46 113.69 414.98 116.5 407.56 116.5C391.14 116.5 378.33 102.82 378.33 85.18C378.33 67.54 391.14 53.78 407.56 53.78C420.95 53.78 431.18 61.34 434.92 73.8L422.61 73.8C420.23 68.47 414.54 64.15 407.63 64.15C397.62 64.15 389.85 73.73 389.85 85.18C389.85 96.55 397.91 106.06 408.14 106.06C416.7 106.06 423.4 100.15 425.56 92.59L409.22 92.59L409.22 81.94L436 81.94L436 115.42ZM205.53 31.61L206.25 49.32L180.33 49.32L181.05 28.51C181.05 27.22 180.76 24.7 178.67 22.54C179.32 20.52 181.05 18 185.51 16.63L187.24 16.13L186.38 14.54C185.58 13.03 185.15 11.3 185.15 9.5C185.15 4.25 188.75 0 193.14 0C197.54 0 201.14 4.25 201.14 9.5C201.14 11.23 200.7 12.96 199.91 14.47L199.12 16.06L200.85 16.56C207.04 18.36 207.98 22.39 207.98 24.7L207.9 26.06C205.89 28.08 205.53 30.38 205.53 31.61ZM255.14 34.49L254.13 64.44L232.38 64.44L232.24 60.34L232.82 60.34L233.97 31.61C233.97 31.18 233.9 30.53 233.75 29.81C234.54 29.16 235.62 28.58 237.06 28.15L238.79 27.65L237.93 26.06C237.28 24.84 236.92 23.47 236.92 22.03C236.92 17.86 239.73 14.47 243.26 14.47C246.78 14.47 249.59 17.86 249.59 22.03C249.59 23.4 249.3 24.77 248.66 25.99L247.86 27.58L249.59 28.08C254.27 29.45 255.28 32.33 255.14 34.49ZM232.53 31.61L231.88 48.02L231.45 58.9L207.98 58.9L207.62 50.83L207.11 37.87L206.82 31.68C206.9 30.96 206.97 29.88 207.62 28.73C207.98 28.08 208.48 27.43 209.2 26.78C210.06 25.99 211.29 25.27 213.02 24.77L214.74 24.26L213.95 22.68C213.23 21.38 212.87 19.87 212.87 18.36C212.87 13.9 215.97 10.22 219.71 10.22C223.53 10.22 226.55 13.9 226.55 18.36C226.55 19.87 226.19 21.31 225.54 22.61L224.75 24.19L226.48 24.7C230.01 25.7 231.52 27.65 232.17 29.38C232.38 30.02 232.46 30.6 232.53 31.18C232.6 31.32 232.6 31.46 232.53 31.61ZM150.66 29.45L151.67 58.9L130.58 58.9L129.57 34.56C129.57 33.12 130.14 29.74 135.26 28.15L136.98 27.65L136.19 26.06C135.54 24.84 135.18 23.47 135.18 22.03C135.18 17.86 138.06 14.47 141.52 14.47C145.05 14.47 147.86 17.86 147.86 22.03C147.86 23.4 147.57 24.77 146.92 25.99L146.13 27.58L147.86 28.08C149.08 28.44 150.02 28.94 150.66 29.45ZM178.46 24.34C179.54 25.78 179.75 27.36 179.75 28.44L179.32 40.61L178.96 50.76L178.46 64.44L153.54 64.44L153.4 60.34L152.97 48.67L152.32 30.82L152.25 28.66L152.25 28.44C152.25 26.78 152.9 22.82 158.87 21.02L160.6 20.52L159.74 18.94C158.94 17.5 158.58 15.91 158.58 14.26C158.58 9.43 161.9 5.47 165.93 5.47C169.96 5.47 173.27 9.43 173.27 14.26C173.27 15.91 172.91 17.5 172.19 18.86L171.4 20.45L173.13 20.95C174.86 21.46 176.15 22.18 177.09 22.97C177.59 23.47 178.02 23.9 178.46 24.34Z" />
</svg>